<?xml version="1.0" encoding="UTF-8" standalone="no"?>
<!DOCTYPE svg PUBLIC "-//W3C//DTD SVG 1.1//EN" "http://www.w3.org/Graphics/SVG/1.1/DTD/svg11.dtd">
<svg width="100%" height="100%" viewBox="0 0 908 948" version="1.1" xmlns="http://www.w3.org/2000/svg" xmlns:xlink="http://www.w3.org/1999/xlink" xml:space="preserve" xmlns:serif="http://www.serif.com/" style="fill-rule:evenodd;clip-rule:evenodd;stroke-linejoin:round;stroke-miterlimit:2;">
    <g id="Background">
        <path d="M905.5,0L906.5,0C907,0 907.742,-0.429 907.999,-0L907.999,470.5C907.454,470.445 906.972,470.075 906.427,470.019C905.599,469.935 903.819,471.121 899.422,472.023C896.578,472.606 893.755,474.133 889.422,475.022C886.555,475.611 883.761,477.13 879.422,478.021C876.533,478.615 873.773,480.126 869.422,481.021C866.516,481.618 863.775,483.124 859.422,484.02C857.399,484.436 852.1,486.461 850.554,486.796C847.469,487.466 847.531,487.627 844.525,488.567C844.136,488.689 844.088,488.496 839.588,489.856C836.307,490.847 836.12,491.267 832.422,492.025C829.618,492.6 826.75,494.138 822.422,495.024C817.86,495.958 815.544,498.139 810.497,497.942C807.488,497.824 807.452,498.12 804.591,497.24C802.098,496.472 801.967,497.293 799.479,496.562C799.177,496.473 798.893,496.329 798.593,496.236C796.706,495.651 796.074,496.053 794.474,495.574C794.172,495.484 793.89,495.338 793.589,495.245C791.096,494.478 790.97,495.306 788.477,494.567C788.175,494.477 787.892,494.332 787.591,494.24C785.098,493.472 784.967,494.293 782.479,493.562C782.177,493.473 781.893,493.329 781.593,493.236C778.905,492.403 777.232,493.673 776.969,490.486C776.85,489.052 777.077,489.064 777.035,472.504C777.025,468.544 774.299,470.494 772.554,470.801C771.003,471.074 771.029,471.104 769.527,471.574C768.517,471.889 767.759,471.805 766.406,472.247C766.165,472.326 763.478,473.205 763.398,473.233C761.005,474.065 760.944,473.788 758.529,474.578C755.054,475.715 755.005,475.489 751.525,476.568C750.502,476.885 749.812,476.781 748.404,477.242C748.163,477.321 745.588,478.164 745.396,478.231C743.44,478.918 743.366,478.592 741.401,479.236C740.001,479.694 740.002,479.629 738.564,479.919C737.826,480.068 733.363,481.658 732.553,481.799C731.007,482.069 731.032,482.102 729.527,482.572C728.512,482.888 727.772,482.799 726.406,483.246C726.165,483.324 723.517,484.19 723.397,484.232C721.443,484.914 721.37,484.596 719.403,485.239C718,485.697 718.003,485.637 716.564,485.926C715.842,486.071 711.34,487.666 710.554,487.805C706.032,488.603 706.229,489.334 703.552,489.795C702.001,490.063 702.03,490.101 700.525,490.569C700.135,490.69 700.081,490.471 695.582,491.84C693.59,492.446 693.618,492.484 691.561,492.904C690.007,493.221 690.113,493.533 688.556,493.81C684.081,494.608 684.277,495.323 681.553,495.8C680.008,496.07 680.033,496.102 678.527,496.573C677.515,496.888 676.768,496.801 675.406,497.246C672.504,498.196 672.553,498.304 669.562,498.911C668.021,499.224 668.118,499.538 666.557,499.817C662.104,500.614 662.3,501.321 659.555,501.806C655.049,502.602 655.246,503.329 652.552,503.795C650.991,504.065 651.021,504.105 649.525,504.569C649.135,504.69 649.09,504.471 644.582,505.841C642.58,506.45 642.608,506.487 640.561,506.905C639.007,507.222 639.112,507.534 637.556,507.812C633.077,508.61 633.273,509.324 630.553,509.801C628.032,510.242 628.082,510.418 625.564,510.924C624.838,511.07 620.342,512.665 619.554,512.803C618.008,513.076 618.032,513.104 616.528,513.575C615.521,513.891 614.746,513.811 613.407,514.249C613.166,514.328 610.412,515.229 610.398,515.234C608.005,516.065 607.946,515.788 605.53,516.58C602.06,517.718 602.005,517.488 598.526,518.569C597.507,518.886 596.794,518.789 595.405,519.244C595.164,519.322 592.535,520.183 592.397,520.231C590.439,520.917 590.365,520.595 588.402,521.237C585.993,522.025 585.939,521.793 583.533,522.586C579.118,524.041 574.522,524.798 570.398,526.233C567.994,527.07 567.932,526.793 565.53,527.578C560.658,529.172 556.636,529.742 552.396,531.231C550.44,531.918 550.367,531.592 548.401,532.236C547.005,532.693 547.002,532.629 545.564,532.919C544.827,533.068 540.363,534.657 539.553,534.799C538.013,535.069 538.038,535.1 536.527,535.572C535.514,535.888 534.769,535.8 533.406,536.246C533.165,536.325 530.487,537.201 530.397,537.232C528.442,537.914 528.368,537.597 526.403,538.239C523.998,539.025 523.946,538.793 521.534,539.59C517.004,541.088 516.89,540.648 512.396,542.23C510.438,542.92 510.363,542.592 508.401,543.235C507.003,543.694 506.998,543.627 505.563,543.917C504.819,544.067 500.373,545.655 499.553,545.797C498.003,546.067 498.03,546.102 496.526,546.57C495.509,546.887 494.783,546.794 493.405,547.245C490.512,548.191 490.561,548.298 487.562,548.908C486.002,549.225 486.108,549.537 484.557,549.814C480.092,550.612 480.288,551.322 477.554,551.803C475.031,552.247 475.09,552.436 472.563,552.916C469.839,553.434 469.941,553.873 465.506,554.529C464.375,554.697 464.404,554.766 463.324,555.151C443.048,560.832 442.82,560.599 442.346,561.365C441.261,563.121 440.742,570.504 436.097,584.365C435.711,585.519 433.134,593.209 430.568,598.53C429.91,599.894 429.07,599.952 429.983,601.147C430.829,602.253 431.082,601.52 432.41,601.133C435.857,600.13 477.393,589.182 491.466,585.379C501.446,582.682 509.801,580.518 511.398,580.105C542.06,572.164 541.932,571.736 572.588,563.829C574.269,563.395 593.985,558.116 594.382,558.033C595.218,557.857 595.261,558.03 595.5,557.812C596.248,557.132 595.748,556.791 596.486,556.119C600.514,556.205 600.5,556.045 604.53,556.135C604.981,556.588 605.05,557.335 605.5,557.788C605.82,558.111 605.998,557.775 610.637,560.217C611.561,560.703 618.13,563.765 632.732,571.021C633.221,571.264 638.636,573.955 638.883,574.003C638.977,574.021 639.032,573.824 639.125,573.846C639.281,573.882 639.265,573.895 641.013,574.505L641.007,575.497C640.899,575.586 639.657,576.612 639.657,576.612C639.229,576.856 639.09,576.517 638.239,577.165C634.789,579.791 608.049,600.145 595.211,610.123C587.547,616.08 587.433,615.892 579.773,621.857C568.237,630.842 546.608,647.235 543.591,649.618C543.324,649.829 531.751,658.664 530.57,659.592C529.44,660.481 516.729,670.155 515.326,671.272C511.332,674.452 500.948,681.935 500.909,682.654C500.832,684.097 502.475,685.088 505.382,687.637C505.479,687.722 530.548,709.255 530.64,709.337C538.092,715.895 555.826,730.603 557.299,732.64C558.046,733.675 566.029,748.079 568.166,751.688C570.224,755.165 577.493,768.177 578.296,769.616C579.443,771.67 579.448,771.661 585.576,782.459C586.265,783.674 586.886,783.847 585.914,784.838C585.233,785.531 585.087,785.251 577.534,786.681C575.616,787.044 555.48,790.512 553.562,790.843C520.79,796.488 418.29,814.452 407.45,816.235C401.721,817.176 401.756,817.322 391.576,818.987C387.585,819.64 386.222,819.927 385.618,821.545C385.296,822.407 365.533,894.744 364.464,898.489C360.333,912.959 360.611,913.021 356.51,927.503C356.092,928.982 355.585,931.235 355.41,931.437C355.279,931.588 354.367,932.642 352.93,931.052C351.124,929.054 351.129,929.056 351.037,928.963C327.703,905.63 304.37,882.297 281.037,858.963C277.399,855.326 276.837,855.188 275.413,856.386C271.877,859.361 257.675,871.961 252.861,875.915C252.756,876.001 232.249,893.887 230.457,895.45C179.837,939.599 179.725,939.459 175.359,943.338C174.829,943.81 174.839,943.791 174.303,944.274C171.661,946.659 171.752,946.722 170.5,947.999C170.311,947.056 170.038,947.16 169.851,946.232C169.839,946.173 169.851,946.173 169.997,945.493C170.605,942.651 170.503,942.645 171.889,928.539C172.038,927.018 173.684,910.264 173.749,909.526C175.242,892.426 177.756,867.144 178.122,863.461C178.337,861.306 180.561,838.939 180.779,836.53C181.696,826.392 181.766,826.416 181.829,825.535C182.571,815.233 183.322,814.282 182.408,813.618C181.588,813.023 181.518,813.417 180.547,813.686C178.546,814.241 178.562,814.286 155.584,820.793C134.882,826.669 114.179,832.546 93.477,838.422C64.762,846.678 23.735,857.98 17.45,860.246C15.404,860.983 14.557,860.519 14.048,860.508C14.488,860.075 15.06,859.792 15.5,859.359C16.235,858.636 16.047,858.486 16.824,857.797C19.667,855.274 33.162,840.893 77.565,794.562C81.807,790.135 83.123,789.427 88.611,784.63C89.595,783.771 102.155,773.029 102.611,772.63C103.382,771.956 108.404,767.567 112.352,764.334C113.354,763.514 113.847,763.719 113.77,762.43C113.714,761.514 113.392,761.689 112.48,761.569C95.96,759.386 95.99,759.302 94.552,759.146C91.338,758.799 72.376,756.122 70.449,755.85C68.377,755.557 44.868,752.238 44.545,752.202C40.038,751.699 22.58,749.166 22.549,749.162C18.223,748.679 18.122,749.094 14.069,747.5C14.512,747.231 15.057,747.161 15.5,746.892C15.774,746.726 15.943,746.429 16.183,746.216C16.57,745.871 16.707,746.061 21.384,742.348C21.735,742.069 24.697,739.718 25.811,738.906C26.327,738.529 29.271,736.381 32.204,734.114C33.458,733.144 47.81,722.048 47.881,721.996C55.3,716.546 55.178,716.394 55.824,715.923C62.813,710.83 63.272,710.159 64.872,708.986C72.297,703.546 72.173,703.386 72.819,702.914C76.946,699.9 76.658,699.253 81.622,697.992C89.098,696.094 222.795,660.365 224.603,659.898C227.306,659.199 228.756,659.011 227.235,656.654C222.77,649.739 219.134,641.668 218.258,639.604C217.001,636.642 209.169,618.184 208.93,600.481C208.881,596.913 209.269,596.905 209.136,596.627C209.078,596.503 207.969,596.268 207.5,596.5C207.325,596.587 207.357,596.868 207.241,597.025C204.343,600.928 196.37,607.486 195.357,608.32C181.997,619.31 160.174,631.518 157.269,633.069C143.16,640.605 141.908,640.974 140.469,641.398C139.38,641.719 56.665,664.042 49.377,666.009C16.55,674.869 16.48,674.667 13.467,675.952C8.131,677.677 8.038,677.698 7.554,677.803C2.904,678.81 2.293,679.251 1.494,678.506C0.761,677.823 1.098,672.749 1.025,672.537C0.866,672.078 0.158,671.959 0,671.5L0,670.5C0.155,670.05 0.877,669.965 1.032,669.515C1.032,669.514 1.034,669.515 1.034,596.5C1.033,541.835 1.032,487.169 1.031,432.504C1.028,431.6 1.061,431.598 1.025,431.528C0.683,430.862 1.396,431.308 1.052,430.64L1.192,429.36C1.343,428.921 0.86,428.983 1.01,428.544C1.031,428.483 1.041,415.614 1.01,415.552C0.788,415.12 1.274,414.863 1.052,414.43C1.052,409.43 1.263,404.5 1.263,399.5C1.517,399.059 0.842,398.879 1.096,398.438C1.262,398.151 1.132,397.774 1.186,397.447C1.444,395.892 1.769,395.998 2.073,394.44C2.566,391.909 2.725,391.962 3.175,389.442C3.453,387.889 3.77,387.987 4.086,386.436C4.816,382.845 5.073,382.928 6.156,379.412C8.354,372.269 9.663,369.956 10.153,368.406C10.967,365.83 11.339,365.986 12.164,363.406C13.005,360.775 16.767,353.844 17.061,353.283C17.928,351.623 18.44,349.688 20.287,347.34C20.617,346.921 20.937,346.514 23.443,341.465C23.872,340.6 24.191,340.499 24.309,340.353C25.257,339.177 24.911,338.973 25.843,337.775C26.711,336.66 26.791,336.725 27.441,335.463C27.893,334.585 29.106,333.541 29.286,333.324C30.253,332.161 29.914,331.964 30.842,330.777C31.716,329.66 31.795,329.73 32.442,328.463C33.393,326.6 34.69,326.85 36.441,323.462C37.439,321.531 42.668,317.882 44.439,314.459C44.931,313.508 45.114,313.612 45.355,313.36C45.59,313.113 47.839,310.76 48.459,310.438C51.875,308.664 55.527,303.446 57.461,302.441C59.669,301.294 59.488,301.053 60.787,299.797C62.22,298.411 63.735,297.805 64.335,297.301C64.494,297.168 65.57,295.896 66.464,295.442C66.724,295.311 67.012,295.236 67.263,295.089C67.515,294.941 68.832,293.764 69.463,293.44C69.723,293.307 70.01,293.228 70.262,293.08C70.551,292.912 71.841,291.755 72.464,291.441C74.315,290.506 74.281,290.47 74.444,290.396C76.447,289.483 76.939,288.514 79.448,287.4C79.676,287.298 81.012,286.705 82.259,286.033C82.663,285.815 83.845,284.747 84.465,284.441C86.319,283.53 86.29,283.482 86.456,283.413C87.088,283.148 87.045,283.115 87.642,282.785C88.672,282.216 89.671,282.558 96.64,278.786C96.899,278.645 112.262,273.457 113.448,273.202C117.166,272.402 117.126,272.251 117.452,272.199C119.482,271.875 119.5,272.022 121.471,271.419C122.552,271.089 124.479,271.068 125.59,270.759C127.989,270.092 127.994,270.222 130.483,270.082C132.234,269.983 133.688,269.329 134.465,269.222C135.909,269.022 153.55,269.027 157.513,269.156C159.662,269.226 160.371,269.86 161.545,270.04C164.09,270.43 164.183,269.762 167.408,270.761C169.421,271.385 169.519,270.827 171.524,271.433C173.024,271.887 172.994,271.919 174.554,272.193C177.133,272.645 176.931,273.362 181.557,274.199C183.302,274.515 183.483,275.176 186.593,276.157C189.173,276.972 189.016,277.349 191.593,278.172C193.265,278.705 193.212,278.814 198.535,281.442C199.556,281.946 199.431,282.1 200.354,282.742C201.292,283.393 201.375,283.204 202.353,283.779C203.549,284.483 203.567,284.436 204.651,285.305C205.837,286.255 206.032,285.912 207.224,286.843C208.342,287.716 208.266,287.795 209.537,288.442C209.791,288.572 209.908,288.632 212.227,290.794C213.806,292.267 214.095,291.869 215.64,293.351C216.621,294.291 226.829,304.081 227.561,305.46C228.699,307.604 228.906,307.437 230.204,308.786C231.493,310.126 231.55,310.662 232.259,311.652C234.531,314.827 236.61,318.221 236.706,318.342C238.281,320.324 237.833,320.581 239.261,322.644C239.673,323.239 239.714,323.192 240.156,323.771C240.611,324.368 241.904,327.367 243.218,329.644C243.435,330.02 244.706,333.242 245.404,333.619C246.426,334.172 246.482,334.145 247.598,333.777C251.846,332.377 252.56,332.7 256.47,331.42C259.655,330.377 261.307,330.102 263.475,329.433C263.515,329.421 270.253,327.935 273.603,326.768C276.325,325.819 280.569,325.183 284.603,323.769C287.244,322.844 287.37,323.079 288.599,322.765C288.685,322.743 289.272,322.448 290.446,322.194C293.025,321.636 292.979,321.49 295.576,320.972C297.346,320.618 299.977,319.517 301.447,319.198C305.163,318.393 305.122,318.24 305.448,318.187C309.451,317.539 309.846,320.124 309.927,320.263C310.12,320.594 311.246,321.84 311.558,322.465C313.338,326.038 313.508,325.93 314.156,326.774C314.456,327.163 315.676,329.801 316.263,330.644C318.174,333.387 318.089,333.414 318.255,333.65C318.672,334.241 318.71,334.197 319.157,334.774C319.451,335.153 320.627,337.745 321.259,338.647C323.999,342.562 323.965,342.718 323.965,347.5C323.969,415.583 323.955,554.36 323.975,554.463C324.214,555.669 324.843,555.864 324.929,556.003C324.823,556.581 324.29,557.022 324.184,557.599C324.02,558.484 326.627,561.449 327.611,562.382C336.52,570.829 344.027,558.603 343.83,557.597C343.717,557.019 343.183,556.58 343.07,556.002C343.166,555.845 343.747,555.748 343.94,554.58C344.265,552.612 343.285,549.911 343.238,549.528C343.099,548.403 343.046,337.902 343.042,319.5C343.039,309.422 342.674,308.857 344.383,308.177C346.76,307.23 348.659,307.069 349.598,306.762C349.895,306.665 350.175,306.52 350.473,306.427C351.484,306.112 352.232,306.199 353.594,305.754C356.487,304.807 356.438,304.699 359.438,304.09C360.988,303.775 360.891,303.461 362.443,303.184C363.99,302.907 363.971,302.904 365.466,302.41C368.941,301.261 369.003,301.555 372.47,300.421C376.474,299.112 382.429,297.813 382.596,297.758C385.503,296.807 385.455,296.707 388.439,296.098C389.991,295.781 389.884,295.468 391.445,295.191C391.866,295.116 393.676,294.795 396.603,293.769C398.559,293.084 398.633,293.407 400.598,292.763C403.867,291.693 404.559,292.315 404.923,290.599C404.969,290.381 404.972,287.748 404.972,287.5C405.001,264.864 404.963,264.88 404.999,263.501C405.128,258.543 405.072,258.558 405.115,240.498C405.201,203.78 405.093,203.75 405.442,202.482C406.405,198.991 407.076,199.302 407.385,199.179C409.77,198.225 411.563,198.106 412.599,197.766C415.012,196.977 415.056,197.179 417.474,196.429C418.503,196.11 419.182,196.217 420.595,195.758C420.893,195.662 421.173,195.515 421.471,195.422C422.479,195.107 423.25,195.189 424.593,194.752C427.503,193.805 427.454,193.703 430.44,193.096C431.988,192.781 431.883,192.469 433.446,192.194C433.774,192.136 434.112,192.152 434.438,192.086C435.99,191.774 435.893,191.46 437.444,191.185C438.999,190.909 438.979,190.904 440.468,190.416C443.71,189.353 446.556,188.78 446.599,188.766C448.576,188.12 448.63,188.403 450.597,187.763C450.895,187.666 451.175,187.522 451.474,187.429C452.503,187.11 453.182,187.217 454.595,186.758C454.893,186.662 455.173,186.515 455.471,186.422C456.479,186.107 457.25,186.189 458.593,185.752C461.503,184.805 461.454,184.703 464.44,184.096C465.988,183.781 465.883,183.469 467.446,183.194C467.774,183.136 468.112,183.152 468.438,183.086C469.99,182.774 469.893,182.46 471.444,182.185C472.999,181.909 472.978,181.904 474.468,181.416C477.699,180.357 480.56,179.779 480.599,179.766C483.014,178.976 483.058,179.179 485.474,178.429C486.503,178.11 487.182,178.217 488.595,177.758C491.019,176.972 491.064,177.201 493.467,176.411C497.076,175.224 503.557,173.773 503.596,173.761C506.008,172.977 506.06,173.205 508.468,172.416C510.933,171.608 510.915,171.616 513.44,171.101C514.987,170.785 514.884,170.471 516.447,170.198C518.988,169.754 518.928,169.585 521.438,169.082C522.992,168.77 522.892,168.456 524.443,168.18C528.849,167.396 528.65,166.687 531.448,166.202C532.921,165.946 540.451,164.077 542.468,163.416C545.699,162.357 548.56,161.779 548.599,161.766C550.567,161.122 550.622,161.405 552.597,160.763C553.998,160.307 554.001,160.37 555.438,160.082C556.992,159.77 556.892,159.456 558.443,159.18C558.864,159.105 560.693,158.779 563.603,157.768C565.561,157.088 565.63,157.407 567.598,156.765C569.002,156.307 569.005,156.375 570.438,156.086C571.989,155.774 571.892,155.46 573.444,155.185C573.865,155.11 575.696,154.785 578.603,153.769C579.995,153.283 580.009,153.393 581.44,153.101C582.987,152.785 582.884,152.471 584.447,152.198C586.281,151.877 594.898,149.708 597.603,148.768C599.561,148.088 599.63,148.407 601.598,147.765C603.002,147.307 603.005,147.375 604.438,147.086C605.989,146.774 605.892,146.46 607.444,146.185C608.999,145.909 608.979,145.904 610.468,145.416C614.376,144.135 624.531,141.779 624.595,141.758C627.003,140.977 627.047,141.207 629.467,140.411C634.277,138.829 640.736,137.639 644.468,136.416C649.501,134.766 654.751,133.899 659.471,132.422C660.479,132.107 661.25,132.189 662.593,131.752C668.972,129.676 669.045,129.945 669.598,129.765C671.002,129.307 671.005,129.375 672.438,129.086C673.989,128.774 673.892,128.46 675.444,128.185C676.999,127.909 676.979,127.904 678.468,127.416C681.699,126.357 684.56,125.779 684.599,125.766C686.567,125.122 686.622,125.405 688.597,124.763C688.895,124.666 689.175,124.522 689.474,124.429C690.503,124.11 691.182,124.217 692.595,123.758C692.893,123.662 693.173,123.515 693.471,123.422C694.479,123.107 695.25,123.189 696.593,122.752C699.504,121.805 699.455,121.703 702.44,121.096C703.991,120.781 703.886,120.468 705.446,120.194C705.774,120.136 706.112,120.152 706.438,120.086C707.989,119.774 707.892,119.46 709.444,119.185C710.999,118.909 710.979,118.904 712.468,118.416C715.699,117.357 718.56,116.779 718.599,116.766C720.566,116.123 720.621,116.406 722.597,115.763C722.895,115.666 723.175,115.522 723.474,115.429C724.504,115.11 725.18,115.217 726.595,114.758C726.893,114.662 727.173,114.515 727.471,114.422C728.479,114.107 729.25,114.189 730.593,113.752C733.504,112.805 733.455,112.703 736.44,112.096C737.991,111.781 737.886,111.468 739.446,111.194C739.774,111.136 740.112,111.152 740.438,111.086C741.989,110.774 741.892,110.46 743.444,110.185C747.866,109.4 747.667,108.683 750.449,108.206C750.776,108.149 751.115,108.167 751.44,108.101C752.987,107.785 752.884,107.471 754.447,107.198C754.775,107.141 755.113,107.157 755.439,107.091C756.997,106.776 756.892,106.464 758.445,106.19C758.773,106.132 759.111,106.147 759.438,106.082C760.991,105.77 760.892,105.456 762.443,105.18C762.864,105.105 764.694,104.779 767.603,103.768C769.561,103.088 769.63,103.407 771.598,102.765C771.896,102.668 772.176,102.524 772.475,102.432C773.513,102.111 774.151,102.23 775.596,101.761C775.894,101.664 776.173,101.517 776.472,101.425C777.415,101.137 778.37,101.23 778.78,100.944C779.908,100.157 779.403,99.881 779.232,98.522C779.188,98.171 779.173,95.744 779.171,95.502C778.996,66.98 779.103,66.981 779.043,64.502C778.978,61.826 779.202,61.841 780.439,59.46C780.727,58.906 780.755,58.852 785.793,53.791C791.316,48.242 791.312,48.269 791.789,47.787C794.793,44.754 796.205,43.817 797.439,41.459C797.939,40.504 798.104,40.623 798.355,40.361C799.827,38.825 799.841,38.86 801.351,37.353C812.913,25.81 812.847,25.715 813.476,25.452C815.857,24.456 815.892,24.611 818.438,24.093C819.997,23.776 819.892,23.464 821.444,23.187C821.865,23.112 823.679,22.788 826.603,21.768C828.556,21.087 828.629,21.405 830.598,20.762C830.895,20.665 831.175,20.52 831.473,20.427C832.484,20.111 833.238,20.197 834.594,19.753C837.492,18.805 837.443,18.697 840.438,18.089C841.986,17.775 841.889,17.461 843.443,17.184C843.864,17.108 845.674,16.785 848.602,15.767C850.922,14.96 855.272,14.27 859.602,12.766C862.007,11.931 862.066,12.208 864.47,11.421C866.934,10.614 866.914,10.616 869.439,10.1C870.988,9.783 870.882,9.47 872.445,9.193C876.942,8.397 876.745,7.672 879.448,7.204C880.995,6.936 880.966,6.899 882.475,6.431C883.496,6.114 884.198,6.214 885.596,5.758C888.499,4.808 888.45,4.704 891.439,4.096C892.982,3.783 892.88,3.473 894.446,3.199C898.504,2.489 898.405,2.061 902.501,1.504C905.036,1.159 905.343,0.102 905.5,0ZM23.963,641.495C23.763,617.989 23.96,618.007 23.748,594.497C23.554,573.078 23.399,522.74 23.38,516.5C23.35,506.818 23.09,422.481 24.04,395.474C24.404,385.13 30.832,368.062 38.682,356.618C46.747,344.86 52.753,337.852 65.281,327.234C65.795,326.798 69.385,323.755 71.868,321.988C73.006,321.178 80.26,316.232 80.768,315.922C95.661,306.845 107.474,302.338 118.571,299.788C163.649,289.428 184.256,314.875 190.343,322.619C198.186,332.599 204.84,349.202 205.085,353.534C205.671,363.875 205.401,366.863 205.213,370.482C205.066,373.327 204.263,388.841 198.235,405.405C189.856,428.428 178.922,440.397 175.907,443.853C174.318,445.675 174.411,446.22 176.288,447.759C179.835,450.67 179.85,450.642 180.152,450.902C191.489,460.673 197.693,469.357 198.979,471.157C201.726,475.001 201.327,475.245 203.264,485.546C203.649,487.596 205.951,499.842 205.776,511.505C205.46,532.548 199.974,560.58 166.23,591.198C158.714,598.018 147.28,606.477 145.546,607.565C140.649,610.637 138.646,613.14 133.557,614.694C132.946,614.88 99.349,624.189 96.374,625.013C90.706,626.584 25.778,644.574 25.504,644.586C24.221,644.641 23.997,643.577 23.965,643.426C23.833,642.796 24.095,642.125 23.963,641.495ZM412.034,463.5C412.034,557.342 412.061,557.35 411.814,559.545C411.442,562.857 408.846,575.835 404.503,586.501C401.614,593.597 385.739,636.831 335.664,653.99C301.344,665.749 270.913,662.569 251.43,642.568C238.466,629.26 233.086,610.902 233.038,605.508C232.986,599.608 233.127,374.886 232.967,368.504C232.898,365.762 234.329,365.647 236.402,365.119C236.527,365.088 267.486,356.962 272.539,355.656C273.521,355.403 273.584,355.022 274.433,355.594C275.047,356.007 274.965,356.21 274.965,379.5C274.965,587.652 274.947,587.666 275.12,588.569C275.576,590.952 285.9,609.727 301.392,615.777C315.354,621.229 326.472,614.446 335.547,609.58C341.148,606.577 351.343,598.536 357.433,590.448C362.84,583.265 367.07,577.295 371.293,564.432C372.062,562.088 371.966,562.029 371.966,537.5C371.966,332.634 371.963,332.653 371.986,332.542C372.388,330.555 373.946,330.48 375.39,330.088C404.901,322.072 404.859,321.931 407.428,321.247C410.256,320.495 410.244,320.452 410.496,320.416C410.628,320.397 411.573,320.264 411.884,321.328C412.115,322.115 411.822,454.258 412.034,463.5ZM817.03,407.492C816.842,412.994 816.668,431.529 816.249,432.416C815.651,433.682 814.388,433.993 811.567,434.739C804.786,436.53 738.727,454.538 733.605,455.897C725.914,457.939 725.943,458.018 637.618,481.958C634.081,482.917 632.385,484.192 632.145,480.539C631.58,471.938 631.301,471.856 632.281,469.408C632.609,468.589 745.417,206.582 750.246,195.39C750.758,194.204 756.361,181.219 756.637,180.559C757.455,178.602 757.873,178.672 757.647,177.43C757.399,176.066 756.659,176.982 744.402,180.12C735.786,182.325 638.933,208.114 638.543,208.015C637.511,207.754 637.399,206.67 637.384,206.519C637.191,204.641 637.365,172.461 637.381,169.5C637.383,169.199 637.398,166.408 637.852,165.773C638.591,164.741 647.204,162.904 655.531,160.608C658.341,159.833 710.575,145.994 712.489,145.46C725.462,141.842 725.541,142.187 738.517,138.559C738.829,138.472 784.953,126.214 801.583,121.808C824.401,115.762 824.466,115.742 826.435,115.141C826.578,115.097 827.868,114.703 828.304,114.945C828.99,115.325 828.637,116.4 828.597,116.522C828.585,116.557 818.481,139.542 817.601,141.544C815.292,146.795 815.356,146.814 789.011,207.29C711.728,384.693 711.788,384.71 705.99,397.712C705.391,399.055 705.464,399.076 698.69,414.583C698.059,416.028 698.085,416.025 697.438,417.472C695.376,422.083 695.219,422.027 695.171,422.462C695.127,422.859 695.53,424.007 695.614,424.027C695.98,424.113 774.508,401.021 781.364,399.005C783.693,398.32 806.49,391.616 810.478,390.429C816.315,388.691 816.361,388.911 816.417,388.931C817.608,389.358 817.293,391.258 817.173,397.491C817.104,401.096 817.081,403.123 817.03,407.492ZM615.03,460.492C614.842,465.994 614.668,484.529 614.249,485.416C613.651,486.682 612.388,486.993 609.567,487.739C602.786,489.53 536.727,507.538 531.605,508.897C523.914,510.939 523.943,511.018 435.618,534.958C432.081,535.917 430.385,537.192 430.145,533.539C429.58,524.938 429.301,524.856 430.281,522.408C430.609,521.589 543.417,259.582 548.246,248.39C548.758,247.204 554.361,234.219 554.637,233.559C555.455,231.602 555.873,231.672 555.647,230.43C555.399,229.066 554.659,229.982 542.402,233.12C533.786,235.325 436.933,261.114 436.543,261.015C435.511,260.754 435.399,259.67 435.384,259.519C435.191,257.641 435.365,225.461 435.381,222.5C435.383,222.199 435.398,219.408 435.852,218.773C436.591,217.741 445.204,215.904 453.531,213.608C456.341,212.833 508.575,198.994 510.489,198.46C523.462,194.842 523.541,195.187 536.517,191.559C536.829,191.472 582.953,179.214 599.583,174.808C622.401,168.762 622.466,168.742 624.435,168.141C624.578,168.097 625.868,167.703 626.304,167.945C626.99,168.325 626.637,169.4 626.597,169.522C626.585,169.557 616.481,192.542 615.601,194.544C613.292,199.795 613.356,199.814 587.011,260.29C509.728,437.693 509.788,437.71 503.99,450.712C503.391,452.055 503.464,452.076 496.69,467.583C496.059,469.028 496.085,469.025 495.438,470.472C493.376,475.083 493.219,475.027 493.171,475.462C493.127,475.859 493.53,477.007 493.614,477.027C493.98,477.113 572.508,454.021 579.364,452.005C581.693,451.32 604.49,444.616 608.478,443.429C614.315,441.691 614.361,441.911 614.417,441.931C615.608,442.358 615.293,444.258 615.173,450.491C615.104,454.096 615.081,456.123 615.03,460.492ZM842.966,79.5C843.173,70.494 842.924,46.221 843.074,45.414C843.524,42.998 844.613,43.938 855.529,41.637C865.996,39.431 866.057,39.844 876.529,37.637C877.086,37.52 883.099,36.252 883.51,36.267C884.791,36.314 885.001,37.409 885.031,37.566C885.153,38.2 885.049,38.856 885.035,39.501C884.872,46.718 885.012,372.748 884.964,375.509C884.92,378.068 884.448,378.205 881.387,379.129C879.212,379.785 844.616,390.526 844.503,390.533C843.22,390.615 842.994,389.573 842.962,389.424C842.826,388.797 842.964,388.141 842.965,387.499C842.965,284.832 842.965,182.166 842.966,79.5ZM842.966,455.5C842.999,454.536 843.035,454.552 843.035,453.5C843.035,420.253 842.989,420.203 843.369,419.416C843.729,418.67 843.902,418.702 870.601,409.802C880.461,406.516 883.423,405.517 883.501,405.511C884.776,405.416 885.005,406.433 885.038,406.579C885.178,407.204 885.051,407.861 885.035,408.501C884.957,411.657 884.965,411.636 884.965,436.5C884.965,447.128 885.253,447.697 883.473,448.437C882.665,448.773 844.504,460.533 844.503,460.533C843.22,460.615 842.994,459.573 842.962,459.424C842.962,459.424 842.965,455.814 842.966,455.5Z" style="fill-opacity:1;"/>
        <path d="M123.5,479.034C129.509,479.034 129.496,478.87 135.493,478.97C140.462,479.053 156.013,484.533 161.612,501.459C162.168,503.139 165.189,512.274 164.049,523.445C163.96,524.313 162.351,532.511 158.12,541.315C148.482,561.37 129.868,574.169 120.546,576.666C117.34,577.525 117.337,577.45 80.419,587.197C67.411,590.632 67.162,590.814 66.564,590.41C65.587,589.751 66.119,586.871 66.14,553.5C66.151,536.688 66.817,460.247 66.966,393.501C66.986,384.278 77.771,370.32 79.888,367.831C92.985,352.433 108.865,343.133 125.486,342.261C133.663,341.832 140.709,343.202 143.315,344.806C163.977,357.521 162.99,375.228 163.048,380.493C163.109,386.057 159.25,405.497 144.173,420.163C140.941,423.306 135.459,427.185 134.664,427.747C127.507,432.811 119.075,435.468 117.633,435.922C114.867,436.794 114.071,436.604 114.036,439.491C113.981,443.984 114.141,469.905 113.966,476.495C113.881,479.701 115.301,478.965 118.5,478.965C121.013,478.966 120.997,478.977 123.5,479.034ZM120.965,535.5C121.293,526.008 120.583,514.348 121.456,513.461C121.935,512.974 125.249,511.941 125.588,511.836C130.088,510.434 131.701,509.374 133.339,510.694C134.304,511.471 135.163,512.493 135.306,512.664C135.864,513.328 137.386,516.308 137.764,517.398C137.924,517.858 138.382,519.179 138.122,523.481C137.941,526.489 135.491,530.051 134.397,532.445C132.99,535.525 130.387,536.643 129.44,538.46C129.258,538.81 128.261,540.723 126.302,542.256C124.525,543.647 121.735,542.914 121.416,542.57C120.823,541.931 120.965,538.887 120.965,535.5ZM119.942,403.508C120.098,402.449 121.034,396.086 123.96,390.746C124.28,390.161 124.426,389.895 129.645,384.648C132.452,381.825 134.267,381.132 134.659,380.988C135.305,380.75 137.464,380.991 138.334,381.698C141.871,384.575 139.048,388.771 138.172,391.406C137.541,393.303 137.304,393.165 136.845,393.771C136.18,394.647 136.389,394.75 135.747,395.652C135.327,396.242 135.296,396.198 134.842,396.776C133.915,397.958 134.26,398.173 133.294,399.325C133.291,399.327 129.337,403.282 129.324,403.293C128.173,404.258 127.959,403.915 126.777,404.842C126.006,405.446 126.157,405.667 124.453,406.409C121.734,407.592 120.524,409.344 119.923,406.456C119.923,406.456 119.94,403.744 119.942,403.508Z" style="fill-opacity:1;"/>
    </g>
    <g transform="matrix(1,0,0,1,593,551)">
        <path d="M93.383,57.059C108.266,52.84 126.718,47.787 129.62,46.992C132.376,46.237 132.61,47.713 133.078,50.561C133.169,51.119 133.861,55.329 134.145,57.552C134.748,62.262 136.084,70.006 136.153,70.549C136.741,75.175 138.07,82.862 138.158,83.549C138.72,87.958 140.104,96.064 140.167,96.549C140.789,101.381 142.093,108.917 142.174,109.547C142.586,112.764 147.244,142.446 147.256,142.535C148.199,149.829 149.548,154.048 148.261,155.209C147.837,155.591 147.661,155.75 141.455,157.331C138.533,158.075 121.785,162.631 121.531,162.675C121.307,162.713 119.404,163.041 118.997,161.397C118.94,161.169 119.008,161.163 118.776,158.478C117.791,147.128 118.157,144.694 117.182,143.998C115.964,143.127 115.86,143.784 114.421,144.175C111.319,145.018 108.405,145.546 107.626,146.594C106.271,148.416 106.286,164.121 105.142,166.294C104.492,167.528 104.123,167.137 86.398,172.137C85.689,172.337 78.51,174.362 77.508,174.556C77.325,174.592 75.703,174.906 75.416,173.519C75.356,173.232 75.587,171.673 75.61,171.514C75.753,170.552 76.789,163.543 77.2,159.466C77.577,155.726 88.74,68.638 89.406,62.488C89.922,57.724 90.767,57.84 93.383,57.059ZM113.254,78.697C113.919,83.563 113.349,83.577 113.629,88.485C114.247,99.308 116.919,120.819 116.455,122.484C116.11,123.721 114.836,123.94 110.418,125.178C110.094,125.269 108.437,125.841 107.676,125.264C106.869,124.651 107.032,124.514 107.124,123.505C107.322,121.347 108.807,105.117 109.969,96.567C111.061,88.532 111.174,79.133 111.812,78.771C111.866,78.741 111.804,79.027 112.555,78.988C112.958,78.967 112.863,78.717 113.254,78.697Z" style="fill-opacity:0.99;"/>
        <path d="M3.032,113.493C3.057,112.049 3.251,101.113 5.846,95.659C8.471,90.141 8.479,90.134 12.27,85.326C16.534,79.917 24.932,74.699 29.625,72.821C44.771,66.759 53.546,68.601 55.601,69.033C64.513,70.904 67.136,76.097 67.842,77.312C68.904,79.14 71.349,83.349 71.373,103.5C71.381,109.615 71.596,111.514 70.425,112.392C69.636,112.983 69.594,112.885 58.586,115.811C52.022,117.557 44.056,119.907 43.428,119.777C42.605,119.607 42.421,118.652 42.396,118.524C42.369,118.383 42.421,103.601 42.374,100.503C42.244,91.929 41.785,88.296 37.472,89.392C31.878,90.813 31.799,95.68 31.798,108.5C31.795,162.122 31.719,162.152 32.493,165.502C33.724,170.828 38.746,168.226 40.32,166.354C43.028,163.133 42.249,150.259 42.399,141.498C42.459,138.001 44.159,138.213 47.45,137.307C49.134,136.844 65.536,132.329 68.515,131.56C71.615,130.759 71.414,132.298 71.358,135.497C70.982,156.966 69.967,166.047 57.265,177.232C43.896,189.004 19.953,193.747 9.877,185.057C1.977,178.243 2.567,162.549 3.032,113.493Z" style="fill-opacity:1;"/>
        <path d="M218.981,111.524C218.532,124.37 216.458,131.34 201.38,141.31C199.764,142.378 192.824,145.708 189.555,146.673C189.098,146.808 176.588,151.129 166.494,148.522C155.151,145.593 154.706,137.605 153.876,134.407C153.635,133.479 153.359,132.417 152.754,122.486C152.669,121.096 152.52,115.786 152.86,114.615C153.383,112.814 155.633,112.874 177.563,106.771C180.452,105.967 180.151,107.508 180.13,110.5C180.022,125.465 180.176,129.08 184.519,128.664C185.972,128.524 189.966,126.926 190.789,121.548C191.399,117.564 191.016,109.099 189.256,106.654C185.343,101.22 164.467,96.759 157.829,90.165C157.038,89.379 154.507,86.251 153.487,82.504C152.143,77.57 152.408,77.538 151.922,72.469C151.683,69.977 152.451,59.624 152.914,57.596C153.867,53.42 156.013,42.606 172.334,34.17C176.41,32.063 183.436,29.818 186.443,29.231C187.145,29.094 200.325,25.371 209.282,29.933C215.718,33.21 216.207,39.38 216.807,51.482C217.073,56.849 216.9,57.387 214.401,58.156C211.497,59.051 194.178,63.702 192.417,64.175C192.303,64.205 190.549,64.88 189.835,64.14C188.911,63.18 189.979,53.91 188.623,50.447C187.3,47.069 180.352,48.54 179.64,56.513C178.721,66.807 182.778,68.7 183.648,69.274C189.458,73.106 211.838,76.68 216.527,88.488C219.893,96.965 219.097,109.674 218.981,111.524Z" style="fill-opacity:0.99;"/>
        <path d="M249.383,14.056C263.993,9.912 264.018,10.044 269.495,8.484C269.972,8.348 284.33,4.347 285.621,3.988C287.204,3.547 287.55,3.145 288.423,4.535C288.738,5.035 288.581,24.071 288.508,24.501C288.114,26.849 286.285,26.727 275.555,29.706C271.801,30.748 271.325,30.942 270.953,32.561C270.893,32.822 270.9,32.825 270.9,98.5C270.9,121.377 270.994,121.539 270.277,122.29C269.805,122.786 266.854,123.597 266.547,123.682C262.671,124.747 244.039,129.752 243.557,129.849C241.906,130.182 241.428,130.241 241.14,128.588C241.123,128.487 241.125,128.505 241.125,58.5C241.125,40.785 241.181,40.698 240.794,40.283C240.269,39.721 240.279,39.622 239.503,39.619C239.488,39.619 229.669,42.27 226.43,43.222C222.694,44.321 223.504,40.792 223.508,39.5C223.562,23.346 223.102,21.605 224.717,20.917C226.026,20.361 248.534,14.28 249.383,14.056Z" style="fill-opacity:1;"/>
    </g>
</svg>
